<mxfile host="app.diagrams.net" modified="2021-06-19T14:06:16.599Z" agent="5.0 (Windows NT 10.0; Win64; x64) AppleWebKit/537.36 (KHTML, like Gecko) Chrome/91.0.4472.101 Safari/537.36 Edg/91.0.864.48" etag="GEDeEQNtr-BLT4Xs0Tf7" version="14.7.8" type="github">
  <diagram id="V-6m_NwFq4gXoD0rBfcP" name="第 1 页">
    <mxGraphModel dx="782" dy="482" grid="1" gridSize="10" guides="1" tooltips="1" connect="1" arrows="1" fold="1" page="1" pageScale="1" pageWidth="827" pageHeight="1169" math="0" shadow="0">
      <root>
        <mxCell id="0" />
        <mxCell id="1" parent="0" />
        <mxCell id="fyVdFYr6qyUAHVgFFjLC-9" style="edgeStyle=orthogonalEdgeStyle;rounded=0;orthogonalLoop=1;jettySize=auto;html=1;" edge="1" parent="1" source="fyVdFYr6qyUAHVgFFjLC-1" target="fyVdFYr6qyUAHVgFFjLC-3">
          <mxGeometry relative="1" as="geometry">
            <Array as="points">
              <mxPoint x="250" y="150" />
              <mxPoint x="370" y="150" />
            </Array>
          </mxGeometry>
        </mxCell>
        <mxCell id="fyVdFYr6qyUAHVgFFjLC-16" value="90%" style="edgeLabel;html=1;align=center;verticalAlign=middle;resizable=0;points=[];" vertex="1" connectable="0" parent="fyVdFYr6qyUAHVgFFjLC-9">
          <mxGeometry x="-0.3158" relative="1" as="geometry">
            <mxPoint x="15" as="offset" />
          </mxGeometry>
        </mxCell>
        <mxCell id="fyVdFYr6qyUAHVgFFjLC-1" value="李安民" style="rounded=0;whiteSpace=wrap;html=1;" vertex="1" parent="1">
          <mxGeometry x="190" y="80" width="120" height="50" as="geometry" />
        </mxCell>
        <mxCell id="fyVdFYr6qyUAHVgFFjLC-10" style="edgeStyle=orthogonalEdgeStyle;rounded=0;orthogonalLoop=1;jettySize=auto;html=1;entryX=0.5;entryY=0;entryDx=0;entryDy=0;" edge="1" parent="1" source="fyVdFYr6qyUAHVgFFjLC-2" target="fyVdFYr6qyUAHVgFFjLC-3">
          <mxGeometry relative="1" as="geometry">
            <Array as="points">
              <mxPoint x="500" y="150" />
              <mxPoint x="370" y="150" />
            </Array>
          </mxGeometry>
        </mxCell>
        <mxCell id="fyVdFYr6qyUAHVgFFjLC-17" value="10%" style="edgeLabel;html=1;align=center;verticalAlign=middle;resizable=0;points=[];" vertex="1" connectable="0" parent="fyVdFYr6qyUAHVgFFjLC-10">
          <mxGeometry x="0.01" y="-3" relative="1" as="geometry">
            <mxPoint x="11" as="offset" />
          </mxGeometry>
        </mxCell>
        <mxCell id="fyVdFYr6qyUAHVgFFjLC-2" value="李猛" style="rounded=0;whiteSpace=wrap;html=1;" vertex="1" parent="1">
          <mxGeometry x="440" y="80" width="120" height="50" as="geometry" />
        </mxCell>
        <mxCell id="fyVdFYr6qyUAHVgFFjLC-11" value="100%" style="edgeStyle=orthogonalEdgeStyle;rounded=0;orthogonalLoop=1;jettySize=auto;html=1;entryX=0.5;entryY=0;entryDx=0;entryDy=0;" edge="1" parent="1" source="fyVdFYr6qyUAHVgFFjLC-3" target="fyVdFYr6qyUAHVgFFjLC-4">
          <mxGeometry relative="1" as="geometry" />
        </mxCell>
        <mxCell id="fyVdFYr6qyUAHVgFFjLC-3" value="山西安泰控股集团有限公司" style="rounded=0;whiteSpace=wrap;html=1;" vertex="1" parent="1">
          <mxGeometry x="270" y="200" width="200" height="40" as="geometry" />
        </mxCell>
        <mxCell id="fyVdFYr6qyUAHVgFFjLC-14" style="edgeStyle=orthogonalEdgeStyle;rounded=0;orthogonalLoop=1;jettySize=auto;html=1;entryX=0.5;entryY=0;entryDx=0;entryDy=0;" edge="1" parent="1" source="fyVdFYr6qyUAHVgFFjLC-4" target="fyVdFYr6qyUAHVgFFjLC-6">
          <mxGeometry relative="1" as="geometry" />
        </mxCell>
        <mxCell id="fyVdFYr6qyUAHVgFFjLC-21" style="edgeStyle=orthogonalEdgeStyle;rounded=0;orthogonalLoop=1;jettySize=auto;html=1;" edge="1" parent="1" source="fyVdFYr6qyUAHVgFFjLC-4" target="fyVdFYr6qyUAHVgFFjLC-8">
          <mxGeometry relative="1" as="geometry" />
        </mxCell>
        <mxCell id="fyVdFYr6qyUAHVgFFjLC-24" style="edgeStyle=orthogonalEdgeStyle;rounded=0;orthogonalLoop=1;jettySize=auto;html=1;" edge="1" parent="1" source="fyVdFYr6qyUAHVgFFjLC-4" target="fyVdFYr6qyUAHVgFFjLC-7">
          <mxGeometry relative="1" as="geometry">
            <Array as="points">
              <mxPoint x="370" y="350" />
              <mxPoint x="180" y="350" />
            </Array>
          </mxGeometry>
        </mxCell>
        <mxCell id="fyVdFYr6qyUAHVgFFjLC-25" style="edgeStyle=orthogonalEdgeStyle;rounded=0;orthogonalLoop=1;jettySize=auto;html=1;" edge="1" parent="1" source="fyVdFYr6qyUAHVgFFjLC-4" target="fyVdFYr6qyUAHVgFFjLC-5">
          <mxGeometry relative="1" as="geometry">
            <Array as="points">
              <mxPoint x="370" y="350" />
              <mxPoint x="60" y="350" />
            </Array>
          </mxGeometry>
        </mxCell>
        <mxCell id="fyVdFYr6qyUAHVgFFjLC-26" style="edgeStyle=orthogonalEdgeStyle;rounded=0;orthogonalLoop=1;jettySize=auto;html=1;entryX=0.5;entryY=0;entryDx=0;entryDy=0;" edge="1" parent="1" source="fyVdFYr6qyUAHVgFFjLC-4" target="fyVdFYr6qyUAHVgFFjLC-18">
          <mxGeometry relative="1" as="geometry">
            <Array as="points">
              <mxPoint x="370" y="350" />
              <mxPoint x="560" y="350" />
            </Array>
          </mxGeometry>
        </mxCell>
        <mxCell id="fyVdFYr6qyUAHVgFFjLC-27" style="edgeStyle=orthogonalEdgeStyle;rounded=0;orthogonalLoop=1;jettySize=auto;html=1;" edge="1" parent="1" source="fyVdFYr6qyUAHVgFFjLC-4" target="fyVdFYr6qyUAHVgFFjLC-19">
          <mxGeometry relative="1" as="geometry">
            <Array as="points">
              <mxPoint x="370" y="350" />
              <mxPoint x="680" y="350" />
            </Array>
          </mxGeometry>
        </mxCell>
        <mxCell id="fyVdFYr6qyUAHVgFFjLC-4" value="山西安泰钢铁科技有限公司" style="rounded=0;whiteSpace=wrap;html=1;" vertex="1" parent="1">
          <mxGeometry x="270" y="280" width="200" height="40" as="geometry" />
        </mxCell>
        <mxCell id="fyVdFYr6qyUAHVgFFjLC-5" value="新泰钢铁资产" style="rounded=0;whiteSpace=wrap;html=1;" vertex="1" parent="1">
          <mxGeometry x="10" y="380" width="100" height="70" as="geometry" />
        </mxCell>
        <mxCell id="fyVdFYr6qyUAHVgFFjLC-6" value="上海晋泰100%股权" style="rounded=0;whiteSpace=wrap;html=1;" vertex="1" parent="1">
          <mxGeometry x="250" y="380" width="110" height="70" as="geometry" />
        </mxCell>
        <mxCell id="fyVdFYr6qyUAHVgFFjLC-7" value="安泰冶炼资产" style="rounded=0;whiteSpace=wrap;html=1;" vertex="1" parent="1">
          <mxGeometry x="130" y="380" width="100" height="70" as="geometry" />
        </mxCell>
        <mxCell id="fyVdFYr6qyUAHVgFFjLC-8" value="富安新材52%股权" style="rounded=0;whiteSpace=wrap;html=1;" vertex="1" parent="1">
          <mxGeometry x="380" y="380" width="110" height="70" as="geometry" />
        </mxCell>
        <mxCell id="fyVdFYr6qyUAHVgFFjLC-18" value="相关银行负债" style="rounded=0;whiteSpace=wrap;html=1;" vertex="1" parent="1">
          <mxGeometry x="510" y="380" width="100" height="70" as="geometry" />
        </mxCell>
        <mxCell id="fyVdFYr6qyUAHVgFFjLC-19" value="经营性负债" style="rounded=0;whiteSpace=wrap;html=1;" vertex="1" parent="1">
          <mxGeometry x="630" y="380" width="100" height="70" as="geometry" />
        </mxCell>
      </root>
    </mxGraphModel>
  </diagram>
</mxfile>
